<svg xmlns="http://www.w3.org/2000/svg" width="50" height="50" viewBox="0 0 128 128" fill="none" class="circle-swap" style="
    width: 44px;
">
<path d="M64 128C99.3462 128 128 99.3462 128 64C128 28.6538 99.3462 0 64 0C28.6538 0 0 28.6538 0 64C0 99.3462 28.6538 128 64 128Z" fill="#373043" style="
    width: 50px;
"></path>
<path d="M53.824 36.16C53.824 34.752 52.672 33.6 51.264 33.6C49.856 33.6 48.704 34.688 48.704 36.096C48.704 44.096 51.84 51.776 57.408 57.408L61.184 54.016C56.512 49.344 53.824 42.88 53.824 36.16Z" fill="#FFD5D6"></path>
<path d="M70.528 62.464L66.752 65.856C71.424 70.528 74.112 76.992 74.112 83.648V85.76L71.488 83.136C70.464 82.112 68.864 82.112 67.904 83.136C66.88 84.096 66.88 85.76 67.904 86.72L74.88 93.632C75.328 94.08 76.032 94.4 76.672 94.4C77.376 94.4 78.016 94.144 78.464 93.632L85.44 86.656C85.952 86.144 86.208 85.504 86.208 84.864C86.208 84.224 85.952 83.584 85.44 83.072C84.416 82.048 82.816 82.048 81.856 83.072L79.232 85.696V83.584C79.168 75.648 76.032 68.032 70.528 62.464Z" fill="#FFD5D6"></path>
<path d="M53.12 93.632L60.096 86.72C60.608 86.208 60.864 85.568 60.864 84.928C60.864 84.288 60.608 83.648 60.096 83.136C59.136 82.176 57.472 82.176 56.512 83.136L53.888 85.76V83.648C53.888 76.48 56.96 69.632 62.336 64.896L69.12 58.752C75.584 52.992 79.296 44.8 79.296 36.16C79.296 34.752 78.144 33.6 76.736 33.6C75.328 33.6 74.176 34.688 74.176 36.096C74.176 43.328 71.104 50.176 65.728 54.912L58.88 60.992C52.416 66.752 48.768 74.944 48.768 83.584V85.76L46.144 83.136C45.184 82.176 43.52 82.176 42.56 83.136C41.6 84.096 41.6 85.76 42.56 86.72L49.536 93.696C50.56 94.656 52.16 94.656 53.12 93.632Z" fill="#FFD5D6"></path>
</svg>